<?xml version="1.0" encoding="UTF-8"?>
<svg version="1.1" xmlns="http://www.w3.org/2000/svg" width="118" height="101">
<path d="M0 0 C11.22 0 22.44 0 34 0 C34 11.55 34 23.1 34 35 C50.5 35 67 35 84 35 C84 23.45 84 11.9 84 0 C95.22 0 106.44 0 118 0 C118 33.33 118 66.66 118 101 C107.11 101 96.22 101 85 101 C84 100 84 100 83.88647461 96.03100586 C83.88672579 94.25894395 83.89229022 92.48687716 83.90234375 90.71484375 C83.90335083 89.8902063 83.90435791 89.06556885 83.90539551 88.21594238 C83.91064408 85.12311419 83.92460523 82.03030576 83.9375 78.9375 C83.958125 72.028125 83.97875 65.11875 84 58 C67.5 58 51 58 34 58 C34.03960567 71.77724113 34.03960567 71.77724113 34.09008789 85.55444336 C34.09300698 87.2745762 34.09555555 88.99470972 34.09765625 90.71484375 C34.10277222 91.61658325 34.10788818 92.51832275 34.11315918 93.4473877 C34.11346882 95.63191745 34.0624587 97.8163633 34 100 C33.67 100.33 33.34 100.66 33 101 C22.11 101 11.22 101 0 101 C0 67.67 0 34.34 0 0 Z " fill="#1A191F" transform="translate(0,0)"/>
</svg>
