<svg xmlns="http://www.w3.org/2000/svg" xmlns:xlink="http://www.w3.org/1999/xlink" viewBox="96.1487908294753 222.85219656258002 433.2349064814815 353.99317482000004" id="svg1" version="1.1" style="max-height: 500px" width="433.2349064814815" height="353.99317482000004">
  <defs id="defs1">
    
    <clipPath id="clipPath4" clipPathUnits="userSpaceOnUse">
      <path id="path4" transform="translate(-823.09675,-324.32591)" d="M 0,595.28 H 1156.881 V 0 H 0 Z"/>
    </clipPath>
    <clipPath id="clipPath6" clipPathUnits="userSpaceOnUse">
      <path id="path6" transform="translate(-933.60062,-282.3669)" d="M 0,595.28 H 1156.881 V 0 H 0 Z"/>
    </clipPath>
    <clipPath id="clipPath8" clipPathUnits="userSpaceOnUse">
      <path id="path8" d="M 0,595.28 H 1156.881 V 0 H 0 Z"/>
    </clipPath>
    <clipPath id="clipPath10" clipPathUnits="userSpaceOnUse">
      <path id="path10" transform="translate(-386.17141,-297.5832)" d="M 0,595.28 H 1156.881 V 0 H 0 Z"/>
    </clipPath>
    <clipPath id="clipPath12" clipPathUnits="userSpaceOnUse">
      <path id="path12" transform="translate(-124.1499,-297.5832)" d="M 0,595.28 H 1156.881 V 0 H 0 Z"/>
    </clipPath>
    <clipPath id="clipPath14" clipPathUnits="userSpaceOnUse">
      <path id="path14" transform="translate(-286.98631,-365.17361)" d="M 0,595.28 H 1156.881 V 0 H 0 Z"/>
    </clipPath>
    <clipPath id="clipPath16" clipPathUnits="userSpaceOnUse">
      <path id="path16" transform="translate(-317.28371,-275.90301)" d="M 0,595.28 H 1156.881 V 0 H 0 Z"/>
    </clipPath>
    <clipPath id="clipPath18" clipPathUnits="userSpaceOnUse">
      <path id="path18" transform="translate(-384.62111,-319.50021)" d="M 0,595.28 H 1156.881 V 0 H 0 Z"/>
    </clipPath>
  </defs>
  
    
  
  <g id="layer-MC0">
    <path transform="matrix(1.3333333,0,0,-1.3333333,579.79293,315.6276)" style="fill:#6c6e70;fill-opacity:1;fill-rule:nonzero;stroke:none" d="m 0,0 v -120.971 h 39.835 v 50.859 h 62.672 v -50.859 h 39.835 V 0 H 102.507 V -42.201 H 39.835 l 0,42.201 z" id="path1"/>
    <path transform="matrix(1.3333333,0,0,-1.3333333,801.4492,315.6276)" style="fill:#6c6e70;fill-opacity:1;fill-rule:nonzero;stroke:none" d="M 0,0 V -120.971 H 122.159 V -93.72 H 40.365 v 21.245 h 75.951 v 24.963 H 40.365 v 22.839 h 81.794 V 0 Z" id="path2"/>
    <path clip-path="url(#clipPath4)" transform="matrix(1.3333333,0,0,-1.3333333,1097.4623,361.27213)" style="fill:#6c6e70;fill-opacity:1;fill-rule:nonzero;stroke:none" d="m 0,0 h 46.739 c 0,0 1.24,27.364 -40.011,35.231 -41.028,7.825 -85.477,1.235 -93.478,-23.546 -7.259,-22.485 1.771,-42.252 33.638,-46.74 31.868,-4.486 55.945,-3.363 58.07,-15.048 1.752,-9.635 -7.259,-14.695 -22.131,-14.695 -28.504,0 -26.379,14.872 -26.379,14.872 l -48.332,0.531 c 0,0 -2.478,-34.523 46.03,-39.834 0,0 51.874,-8.499 81.44,9.915 23.513,14.642 20.006,49.04 0.353,58.246 -19.153,8.973 -69.399,12.57 -75.242,14.694 -5.843,2.125 -8.928,8.599 -3.894,13.632 5.842,5.843 16.732,6.806 26.555,5.312 C -8.498,11.331 0,7.436 0,0" id="path3"/>
    <path clip-path="url(#clipPath6)" transform="matrix(1.3333333,0,0,-1.3333333,1244.8008,417.21747)" style="fill:#6c6e70;fill-opacity:1;fill-rule:nonzero;stroke:none" d="M 0,0 17.482,45.385 34.965,0 Z M 41.93,76.192 H -7.465 l -50.65,-120.97 h 40.867 l 7.766,19.815 h 53.981 l 7.715,-19.815 h 42.297 z" id="path5"/>
    <path clip-path="url(#clipPath8)" transform="matrix(1.3333333,0,0,-1.3333333,0,793.70667)" style="fill:#6c6e70;fill-opacity:1;fill-rule:nonzero;stroke:none" d="m 1036.078,237.589 h 41.428 V 358.56 h -41.428 z" id="path7"/>
    <path clip-path="url(#clipPath10)" transform="matrix(1.3333333,0,0,-1.3333333,514.8952,396.92907)" style="fill:#ec1b23;fill-opacity:1;fill-rule:nonzero;stroke:none" d="M 0,0 C 0,49.062 -23.293,92.677 -59.416,120.412 L -84.673,87.562 C -58.39,67.403 -41.439,35.684 -41.439,0 c 0,-35.291 -16.577,-66.708 -42.367,-86.897 l 25.257,-32.85 C -22.919,-91.982 0,-48.669 0,0" id="path9"/>
    <path clip-path="url(#clipPath12)" transform="matrix(1.3333333,0,0,-1.3333333,165.5332,396.92907)" style="fill:#ec1b23;fill-opacity:1;fill-rule:nonzero;stroke:none" d="m 0,0 c 0,35.925 17.18,67.833 43.768,87.971 l -25.257,32.85 C -17.917,93.107 -41.438,49.304 -41.438,0 c 0,-48.911 23.149,-92.409 59.082,-120.157 l 25.257,32.851 C 16.808,-67.135 0,-35.533 0,0" id="path11"/>
    <path clip-path="url(#clipPath14)" transform="matrix(1.3333333,0,0,-1.3333333,382.6484,306.80853)" style="fill:#6c6e70;fill-opacity:1;fill-rule:nonzero;stroke:none" d="m 0,0 -26.236,-33.57 c -7.25,5.669 -16.396,9.062 -26.322,9.062 -9.693,0 -18.608,-3.225 -25.773,-8.662 -4.488,-3.372 -8.282,-7.629 -11.127,-12.497 h -45.667 c 4.848,18.587 15.785,34.688 30.558,46.067 14.393,11.085 32.432,17.682 52.009,17.682 C -32.748,18.082 -14.499,11.338 0,0" id="path13"/>
    <path clip-path="url(#clipPath16)" transform="matrix(1.3333333,0,0,-1.3333333,423.04493,425.836)" style="fill:#6c6e70;fill-opacity:1;fill-rule:nonzero;stroke:none" d="m 0,0 c -4.784,-17.954 -15.257,-33.591 -29.398,-44.823 -14.583,-11.591 -33.022,-18.503 -53.085,-18.503 -19.809,0 -38.038,6.743 -52.537,18.102 l 26.237,33.571 c 7.25,-5.711 16.374,-9.083 26.3,-9.083 10.158,0 19.515,3.541 26.848,9.483 3.899,3.14 7.228,6.954 9.821,11.253 z" id="path15"/>
    <path clip-path="url(#clipPath18)" transform="matrix(1.3333333,0,0,-1.3333333,512.82813,367.7064)" style="fill:#ec1b23;fill-opacity:1;fill-rule:nonzero;stroke:none" d="M 0,0 C -0.209,1.537 -0.449,3.074 -0.718,4.591 -0.84,4.303 -0.974,4.022 -1.121,3.749 -2.378,1.403 -4.888,0 -7.549,0 l -285.398,0.042 c -2.832,0 -5.501,1.581 -6.646,4.171 l -0.022,0.051 c -0.239,-1.398 -0.469,-2.805 -0.669,-4.222 -1.078,-7.257 -1.627,-14.683 -1.627,-22.238 0,-7.356 0.529,-14.602 1.547,-21.679 0.21,-1.538 0.449,-3.075 0.719,-4.591 0.121,0.288 0.256,0.569 0.402,0.842 1.257,2.346 3.767,3.749 6.428,3.749 l 285.399,-0.042 c 2.832,0 5.501,-1.581 6.645,-4.171 l 0.022,-0.051 c 0.24,1.397 0.47,2.805 0.669,4.222 1.079,7.256 1.627,14.682 1.627,22.238 C 1.547,-14.323 1.018,-7.077 0,0" id="path17"/>
  </g>
</svg>